# File created by Blade
# Date/Time:  Wed Jan 21 15:55:51 2015
# Frame Rate: 120.000 fps
#------------------------------------------------------
:FULLY-SPECIFIED
:DEGREES
1006
root 15.719467 27.598326 -10.390195 -149.001942 23.580463 -178.873451
Spine 49.820007 -5.828537 9.711651
Head -0.854169 13.797869 -25.445530
LeftShoulder 15.880567 -35.539592 -8.309747
LeftArm 22.648638 21.499008 -69.745374
LeftForeArm -11.878418 -0.000000 14.508817
LeftHand -0.255669 -0.000000 6.387023
LeftHandThumb1 -26.253704 0.000000 33.147579
RightShoulder 11.828034 7.590001 -9.734935
RightArm 42.225188 22.701936 42.690182
RightForeArm -18.315740 -0.000000 27.929267
RightHand -4.042862 0.000000 -2.162363
RightHandThumb1 -24.326973 -0.000000 -32.862282
LeftUpLeg -22.043827 45.173541 23.560181
LeftLeg 0.840544 -0.000000 -0.000000
LeftFoot -9.737335 22.826340 -23.841469
LeftToeBase 32.836294 -0.000000 -0.000000
RightUpLeg -89.045535 -14.872754 6.905122
RightLeg 63.743936 -0.000000 -0.000000
RightFoot -29.031249 -24.706599 23.182137
RightToeBase 19.671926 -0.000000 -0.000000
1007
root 15.612669 27.693387 -10.387276 -149.477477 23.167400 -178.958282
Spine 49.413138 -5.665644 9.708482
Head -0.767304 13.824390 -25.048069
LeftShoulder 15.198594 -34.996693 -7.891949
LeftArm 22.361975 21.937836 -69.829748
LeftForeArm -10.732315 -0.000000 15.185584
LeftHand -0.227217 -0.000000 6.747997
LeftHandThumb1 -26.253704 0.000000 33.147579
RightShoulder 11.775512 7.638630 -9.620437
RightArm 42.128021 22.711256 43.300301
RightForeArm -18.874919 -0.000000 28.186609
RightHand -4.136223 0.000000 -2.013677
RightHandThumb1 -24.326973 -0.000000 -32.862282
LeftUpLeg -22.144683 44.683905 23.508613
LeftLeg 1.077952 -0.000000 -0.000000
LeftFoot -9.886676 22.735512 -23.786685
LeftToeBase 32.843682 -0.000000 -0.000000
RightUpLeg -88.277717 -15.431071 6.825146
RightLeg 63.137967 -0.000000 -0.000000
RightFoot -28.946693 -24.661007 23.293737
RightToeBase 19.200505 -0.000000 -0.000000
1008
root 15.500645 27.788176 -10.388670 -149.940287 22.700390 -179.056525
Spine 48.954978 -5.578418 9.725416
Head -0.672521 13.781991 -24.689463
LeftShoulder 14.618652 -34.552000 -7.529878
LeftArm 21.813428 22.270113 -70.029477
LeftForeArm -9.946184 0.000000 16.010162
LeftHand -0.365724 -0.000000 7.172567
LeftHandThumb1 -26.253704 0.000000 33.147579
RightShoulder 11.713533 7.458589 -9.521340
RightArm 42.298723 22.863288 43.924081
RightForeArm -19.485432 -0.000000 28.242608
RightHand -4.125609 -0.000000 -1.930034
RightHandThumb1 -24.326973 -0.000000 -32.862282
LeftUpLeg -22.343543 44.160970 23.426373
LeftLeg 1.448401 -0.000000 -0.000000
LeftFoot -9.987350 22.566262 -23.409435
LeftToeBase 32.708159 -0.000000 -0.000000
RightUpLeg -87.551576 -16.090411 6.814455
RightLeg 62.536564 -0.000000 -0.000000
RightFoot -28.872786 -24.590052 23.431402
RightToeBase 18.455322 -0.000000 -0.000000
1009
root 15.381365 27.881228 -10.397754 -150.433800 22.301546 -179.225801
Spine 48.487029 -5.439652 9.650481
Head -0.560434 13.872677 -24.307856
LeftShoulder 14.084109 -34.204597 -7.184486
LeftArm 21.118408 22.438676 -70.375647
LeftForeArm -9.223819 -0.000000 16.745912
LeftHand -0.427113 0.000000 7.327592
LeftHandThumb1 -26.253704 0.000000 33.147579
RightShoulder 11.598216 7.311957 -9.341986
RightArm 42.510193 22.880086 44.430177
RightForeArm -19.994849 -0.000000 28.093009
RightHand -3.846368 0.000000 -1.981202
RightHandThumb1 -24.326973 -0.000000 -32.862282
LeftUpLeg -22.516951 43.723435 23.205353
LeftLeg 1.748887 -0.000000 -0.000000
LeftFoot -10.140894 22.421883 -23.217135
LeftToeBase 32.689617 -0.000000 -0.000000
RightUpLeg -86.837897 -16.752515 6.723436
RightLeg 61.940021 -0.000000 -0.000000
RightFoot -28.790759 -24.613481 23.394420
RightToeBase 17.972879 -0.000000 -0.000000
